<?xml version="1.0" standalone="no"?>
<!DOCTYPE svg PUBLIC "-//W3C//DTD SVG 20010904//EN"
 "http://www.w3.org/TR/2001/REC-SVG-20010904/DTD/svg10.dtd">
<svg version="1.0" xmlns="http://www.w3.org/2000/svg"
 width="1024.000000pt" height="432.000000pt" viewBox="0 0 1024.000000 432.000000"
 preserveAspectRatio="xMidYMid meet">

<g transform="translate(0.000000,432.000000) scale(0.100000,-0.100000)"
fill="#000000" stroke="none">
<path d="M1530 2150 l0 -1540 500 0 500 0 -2 1538 -3 1537 -497 3 -498 2 0
-1540z m958 -2 l2 -1498 -460 0 -460 0 0 1500 0 1500 458 -2 457 -3 3 -1497z"/>
<path d="M2034 3495 c-3 -6 -4 -41 -2 -76 l3 -64 123 -3 122 -3 0 81 0 81
-121 -2 c-86 -1 -122 -5 -125 -14z"/>
<path d="M1721 3355 c-32 -30 -32 -54 -1 -34 27 16 30 10 30 -62 0 -62 2 -70
18 -67 15 3 17 16 17 98 0 110 -9 119 -64 65z"/>
<path d="M1884 3382 c-20 -13 -34 -50 -34 -91 0 -78 29 -111 85 -97 46 12 58
134 18 179 -17 18 -50 22 -69 9z m51 -92 c0 -58 -2 -65 -20 -65 -17 0 -20 8
-23 54 -4 65 2 84 25 79 15 -3 18 -14 18 -68z"/>
<path d="M2030 3155 l0 -75 125 0 125 0 0 75 0 75 -125 0 -125 0 0 -75z"/>
<path d="M1630 2175 l0 -725 245 0 245 0 0 94 c0 76 -3 95 -16 100 -9 3 -60 6
-115 6 l-99 0 2 243 3 242 103 3 102 3 0 58 c0 32 -3 73 -6 90 l-6 31 -77 0
c-132 0 -121 -17 -121 196 l0 184 115 0 115 0 0 100 0 100 -245 0 -245 0 0
-725z"/>
<path d="M1714 1255 c-3 -6 -4 -41 -2 -76 l3 -64 123 -3 122 -3 0 81 0 81
-121 -2 c-86 -1 -122 -5 -125 -14z"/>
<path d="M2044 1142 c-20 -13 -34 -50 -34 -91 0 -78 29 -111 85 -97 45 11 58
142 18 181 -15 16 -51 20 -69 7z m51 -92 c0 -60 -2 -65 -22 -68 -22 -3 -23 0
-23 61 0 68 5 79 30 75 12 -3 15 -18 15 -68z"/>
<path d="M2192 1134 c-47 -32 -11 -123 44 -110 20 5 24 3 24 -14 0 -24 -25
-37 -43 -22 -8 7 -18 8 -27 1 -13 -8 -12 -12 4 -24 26 -20 49 -19 77 4 20 16
24 28 24 79 0 90 -45 127 -103 86z m63 -49 c0 -23 -4 -30 -20 -30 -15 0 -21 8
-23 33 -3 30 -1 33 20 30 18 -2 23 -9 23 -33z"/>
<path d="M1714 935 c-3 -6 -4 -41 -2 -76 l3 -64 123 -3 122 -3 0 81 0 81 -121
-2 c-86 -1 -122 -5 -125 -14z"/>
<path d="M1075 2893 c-63 -22 -118 -79 -142 -146 -17 -48 -18 -97 -18 -592 l0
-540 27 -57 c59 -127 209 -163 326 -78 l42 30 15 -30 c15 -29 18 -30 80 -30
l65 0 0 360 0 360 -145 0 -144 0 -4 -112 c-1 -62 -4 51 -5 252 0 201 3 371 7
379 5 7 17 11 27 9 18 -3 19 -16 22 -161 l3 -157 120 0 121 0 -4 183 c-3 154
-6 187 -22 217 -48 91 -106 122 -231 127 -65 2 -104 -2 -140 -14z m155 -1098
l0 -145 -24 0 c-13 0 -27 7 -30 16 -3 9 -6 74 -6 145 l0 129 30 0 30 0 0 -145z"/>
<path d="M2760 2895 c-60 -19 -112 -64 -141 -122 l-24 -48 -3 -534 c-3 -612
-3 -614 72 -687 52 -50 113 -69 216 -69 126 1 220 53 259 145 21 50 22 55 19
608 -3 509 -5 560 -21 589 -28 52 -83 99 -138 116 -62 20 -177 21 -239 2z
m145 -217 c3 -13 4 -248 3 -523 -3 -485 -4 -500 -22 -503 -45 -9 -46 3 -46
521 0 317 4 495 10 508 15 26 48 25 55 -3z"/>
<path d="M5435 2901 c-84 -22 -146 -82 -170 -165 -14 -46 -15 -128 -13 -592 3
-535 3 -539 25 -581 47 -87 130 -128 258 -128 93 1 162 25 213 77 73 73 72 66
72 658 0 582 -1 597 -62 659 -55 57 -102 74 -203 77 -49 2 -103 0 -120 -5z
m123 -213 c9 -9 12 -138 12 -520 0 -462 -2 -509 -16 -515 -9 -3 -24 -2 -33 4
-14 9 -16 63 -19 513 -1 363 1 507 9 516 14 17 31 18 47 2z"/>
<path d="M3760 2175 l0 -725 125 0 125 0 2 263 3 262 85 6 c122 9 164 31 203
102 21 41 22 51 22 352 l0 310 -25 45 c-48 86 -131 110 -383 110 l-157 0 0
-725z m295 480 c25 -24 25 -25 25 -217 0 -206 -7 -238 -51 -238 -18 0 -19 9
-19 240 0 160 3 240 10 240 6 0 22 -11 35 -25z"/>
<path d="M4490 2176 l0 -727 128 3 127 3 2 325 c1 179 2 331 3 338 0 21 29 13
46 -14 15 -22 16 -45 11 -182 -7 -169 5 -390 23 -437 6 -16 17 -33 23 -37 7
-4 65 -8 131 -8 118 0 118 0 111 23 -3 12 -11 38 -16 57 -6 19 -14 157 -18
305 -6 250 -8 273 -28 311 -21 38 -65 84 -95 98 -10 5 -10 7 1 12 37 17 91 79
105 121 19 56 22 290 5 358 -14 57 -76 127 -131 151 -35 15 -78 19 -235 22
l-193 4 0 -726z m295 508 c18 -13 20 -28 23 -157 3 -148 -6 -188 -40 -195 -15
-3 -17 13 -20 160 -4 219 -3 223 37 192z"/>
<path d="M6270 2291 c0 -335 -3 -616 -6 -625 -8 -21 -40 -21 -48 0 -3 9 -6 96
-6 195 l0 179 -115 0 -115 0 0 -196 c0 -107 5 -215 11 -238 14 -58 55 -105
120 -141 46 -25 65 -29 129 -29 105 0 166 19 215 68 71 71 69 51 72 736 2 338
1 625 -2 637 -5 22 -9 23 -130 23 l-125 0 0 -609z"/>
<path d="M6680 2175 l0 -725 245 0 245 0 0 94 c0 69 -4 95 -13 99 -8 3 -50 5
-95 6 -45 0 -91 0 -102 1 -19 0 -20 7 -20 245 l0 245 105 0 105 0 0 90 c0 86
-1 90 -24 96 -13 3 -52 4 -87 1 -106 -7 -99 -21 -99 189 l0 184 115 0 115 0 0
100 0 100 -245 0 -245 0 0 -725z"/>
<path d="M7310 2175 l0 -725 130 0 130 0 2 202 3 202 35 -199 36 -200 142 -3
c78 -1 142 -1 142 2 0 2 -40 180 -89 394 l-90 389 75 322 c41 176 74 326 74
331 0 6 -47 10 -119 10 -105 0 -120 -2 -124 -17 -3 -10 -23 -97 -44 -193 l-38
-175 -5 190 -5 190 -127 3 -128 3 0 -726z"/>
<path d="M8077 2893 c-4 -3 -7 -48 -7 -100 l0 -93 70 0 70 0 0 -625 0 -625
130 0 130 0 0 625 0 625 70 0 71 0 -3 98 -3 97 -261 3 c-143 1 -263 -1 -267
-5z"/>
<path d="M3330 2045 l0 -85 165 0 165 0 0 85 0 85 -165 0 -165 0 0 -85z"/>
<path d="M3910 986 c0 -100 -3 -128 -16 -140 -27 -28 -64 -12 -64 26 0 14 -8
18 -36 18 -36 0 -36 -1 -30 -32 10 -53 46 -81 102 -81 40 0 51 4 76 31 28 32
28 33 28 167 l0 135 -30 0 -30 0 0 -124z"/>
<path d="M4290 945 l0 -165 34 0 c34 0 35 1 38 47 2 25 8 48 15 50 6 2 24 -19
40 -46 24 -45 32 -51 60 -51 l32 0 -40 70 c-21 38 -39 74 -39 80 0 5 16 28 36
50 l36 40 -33 0 c-28 0 -41 -8 -71 -42 l-37 -43 -1 88 0 87 -35 0 -35 0 0
-165z"/>
<path d="M4830 945 l0 -165 30 0 c20 0 30 5 30 15 0 12 6 11 34 -6 64 -38 118
7 124 104 3 53 1 66 -18 90 -32 41 -65 51 -103 32 -16 -8 -32 -15 -34 -15 -1
0 -3 25 -3 55 0 54 0 55 -30 55 l-30 0 0 -165z m140 20 c21 -25 24 -92 6 -120
-33 -50 -86 -16 -86 55 0 63 48 103 80 65z"/>
<path d="M5250 1027 c0 -71 -3 -87 -20 -102 -11 -10 -20 -25 -20 -34 0 -12 3
-12 12 -3 22 22 28 12 28 -48 l0 -60 115 0 115 0 0 25 c0 24 -2 24 -82 27
l-83 3 -3 61 c-3 61 -2 62 38 96 55 48 55 81 0 38 -14 -11 -28 -20 -32 -20 -5
0 -8 23 -8 50 0 49 -1 50 -30 50 l-30 0 0 -83z"/>
<path d="M6860 945 l0 -165 34 0 c34 0 35 1 38 47 2 25 8 48 14 50 6 2 23 -19
38 -47 23 -42 32 -50 57 -50 16 0 29 3 29 6 0 3 -18 37 -41 76 l-41 70 36 37
c20 20 36 40 36 44 0 4 -13 7 -29 7 -21 0 -39 -11 -65 -40 l-36 -40 0 85 0 85
-35 0 -35 0 0 -165z"/>
<path d="M7110 1085 c0 -22 4 -25 35 -25 31 0 35 3 35 25 0 22 -4 25 -35 25
-31 0 -35 -3 -35 -25z"/>
<path d="M5838 1082 c-17 -11 -28 -26 -28 -39 0 -14 -6 -23 -15 -23 -9 0 -15
-9 -15 -25 0 -16 6 -25 15 -25 12 0 15 -14 15 -64 0 -80 12 -113 46 -126 35
-14 74 -3 74 21 0 14 -7 19 -25 19 -24 0 -25 2 -25 74 0 70 1 75 23 78 14 2
23 11 25 26 3 18 -1 22 -22 22 -24 0 -26 4 -26 40 0 44 -3 46 -42 22z"/>
<path d="M4093 1023 c-22 -4 -63 -46 -63 -64 0 -16 58 -10 64 7 9 24 60 14 64
-13 3 -22 -2 -25 -66 -38 -62 -13 -89 -66 -57 -112 21 -29 60 -37 98 -18 20
10 33 12 35 5 2 -5 18 -10 35 -10 l32 0 -6 97 c-3 54 -9 106 -13 115 -5 10
-24 22 -44 28 -38 10 -41 10 -79 3z m56 -189 c-18 -22 -53 -13 -57 13 -3 18 3
24 30 31 28 7 33 6 36 -10 2 -11 -2 -26 -9 -34z"/>
<path d="M5603 1023 c-31 -6 -79 -56 -86 -90 -19 -102 69 -186 157 -149 50 21
76 60 76 116 0 33 -6 55 -22 75 -19 25 -76 57 -95 54 -4 -1 -18 -4 -30 -6z
m68 -60 c8 -9 14 -37 14 -63 0 -53 -17 -80 -51 -80 -30 0 -54 35 -54 80 0 66
56 106 91 63z"/>
<path d="M6018 1014 c-61 -26 -88 -117 -53 -183 17 -35 84 -64 123 -55 60 14
107 86 95 146 -9 50 -39 86 -81 98 -45 12 -39 12 -84 -6z m86 -56 c35 -49 9
-138 -38 -138 -34 0 -51 27 -51 80 0 26 6 54 14 63 19 24 57 21 75 -5z"/>
<path d="M6645 1020 c-37 -12 -55 -35 -55 -70 0 -36 24 -55 93 -75 44 -13 57
-21 55 -33 -5 -27 -63 -28 -82 -1 -13 19 -20 21 -46 13 l-32 -9 22 -27 c43
-55 142 -58 185 -6 14 16 25 35 25 43 0 27 -37 56 -95 73 -67 20 -81 45 -27
50 22 2 34 -2 38 -12 4 -10 18 -16 39 -16 29 0 32 3 28 21 -11 41 -89 67 -148
49z"/>
<path d="M4550 921 c0 -81 3 -103 18 -122 23 -28 73 -30 102 -4 18 16 20 16
20 2 0 -13 9 -17 35 -17 l35 0 0 120 0 120 -35 0 -35 0 0 -88 c0 -91 -8 -112
-42 -112 -28 0 -38 33 -38 119 l0 81 -30 0 -30 0 0 -99z"/>
<path d="M6213 1006 c3 -8 21 -62 39 -120 33 -105 33 -106 64 -106 31 0 32 2
50 70 10 39 21 70 25 70 4 0 15 -31 24 -70 17 -68 18 -70 49 -70 31 0 31 1 65
108 18 59 36 113 38 120 4 8 -5 12 -26 12 -29 0 -31 -3 -53 -76 -24 -84 -25
-84 -53 19 -15 52 -19 57 -45 57 -26 0 -30 -5 -45 -57 -28 -103 -29 -103 -53
-19 -22 73 -24 76 -53 76 -23 0 -30 -4 -26 -14z"/>
<path d="M7110 900 l0 -120 35 0 35 0 0 120 0 120 -35 0 -35 0 0 -120z"/>
</g>
</svg>
